<svg xmlns="http://www.w3.org/2000/svg" xmlns:xlink="http://www.w3.org/1999/xlink" version="1.1" id="Layer_1" x="0px" y="0px" enable-background="new 0 0 1024 1024" xml:space="preserve" viewBox="140.77 409.38 750.7 177.7">
<path fill="#000000" opacity="1.000000" stroke="none" d=" M150.116150,585.302429   C148.468857,585.312744 147.303070,585.322449 146.137344,585.317810   C143.571426,585.307678 141.360703,584.536316 140.984131,581.688171   C140.570099,578.556641 142.940430,578.086914 145.351013,577.422791   C154.161591,574.995422 158.943024,569.068054 159.683014,559.771240   C161.787094,533.337524 160.231781,506.857330 160.554367,480.400330   C160.710571,467.590820 160.842133,454.774017 160.104385,441.951782   C159.538147,432.110413 155.637802,423.686218 144.322968,422.138092   C142.184219,421.845428 140.552185,420.645294 140.791138,418.110504   C141.029755,415.579041 142.868484,414.883972 145.014847,414.766602   C147.008240,414.657593 149.013657,414.620300 151.007965,414.698792   C174.470688,415.622070 197.977509,413.996826 221.415985,415.738007   C234.835541,416.734924 247.936920,419.472473 258.718567,428.189911   C270.443207,437.669769 275.115234,450.280121 272.261993,465.085388   C269.594635,478.925934 259.298279,485.742584 247.043945,490.308441   C245.199600,490.995605 243.121368,491.117004 241.374634,492.709015   C243.586365,494.880035 246.525925,494.920349 249.127823,495.755829   C263.740479,500.447845 276.591034,507.640137 282.330139,522.840149   C290.402374,544.219482 279.922943,566.884827 257.842712,576.583984   C243.605850,582.837891 228.501038,585.031189 213.049515,585.101562   C192.232361,585.196411 171.414978,585.233521 150.116150,585.302429  M247.063232,515.480347   C242.208710,508.495453 235.457214,504.245667 227.530380,501.447174   C217.372131,497.860901 206.884766,498.436066 196.408386,498.333954   C191.974579,498.290741 190.237671,499.882202 190.288544,504.508667   C190.499207,523.670227 190.357437,542.835449 190.456223,561.998718   C190.473312,565.314636 191.063843,568.625000 191.322327,571.943237   C191.504623,574.283447 192.564713,575.696655 195.022018,575.770508   C203.835983,576.035339 212.698776,576.785034 221.359360,574.471863   C248.467102,567.231445 260.964203,539.218506 247.063232,515.480347  M237.685074,475.100922   C247.640793,459.924957 242.510773,435.898743 222.138351,428.430420   C214.997437,425.812714 207.749039,424.460632 200.220200,424.383728   C190.974197,424.289215 190.447220,424.803589 190.413010,434.268433   C190.355850,450.085236 190.394318,465.902435 190.391388,481.719452   C190.389969,489.380341 189.543137,490.923553 198.781876,490.146149   C199.930573,490.049469 201.104446,490.301636 202.267883,490.322449   C216.074005,490.569427 228.228622,486.853668 237.685074,475.100922  z"/>
<path fill="#000000" opacity="1.000000" stroke="none" d=" M656.102295,571.975098   C658.251953,568.594910 658.779663,565.194031 658.779236,561.630554   C658.777039,541.476929 658.954468,521.321960 658.780640,501.170013   C658.642883,485.190155 645.069702,476.644562 630.344604,483.247864   C621.966431,487.005005 616.624268,492.399261 617.108643,503.074066   C617.953369,521.690369 617.581665,540.377441 617.233032,559.025818   C617.047668,568.939514 622.713623,576.897949 632.313110,577.118164   C634.787659,577.174927 637.140503,578.030579 636.865967,581.175354   C636.601379,584.206848 634.355957,584.630127 631.766724,584.580933   C624.949829,584.451477 618.129333,584.335938 611.312561,584.413330   C600.993530,584.530457 590.676453,584.823669 580.358215,585.020935   C578.862854,585.049561 577.352173,585.072571 575.871887,584.898987   C573.932373,584.671631 572.240784,583.831238 571.974976,581.668823   C571.709534,579.508362 573.067566,578.315552 574.987915,577.674927   C575.619507,577.464233 576.262878,577.288879 576.893005,577.074158   C584.858276,574.359680 588.448486,570.080200 588.534485,561.640625   C588.744995,540.989502 588.712463,520.333984 588.548645,499.682098   C588.497375,493.221985 586.942993,487.296326 579.263733,485.630768   C577.199158,485.182953 576.259460,483.607208 575.935425,481.695923   C575.545105,479.394043 577.356140,478.569702 578.918030,477.595764   C584.225159,474.286377 590.465881,473.439972 596.130188,471.054382   C600.761536,469.103882 605.187744,466.856171 609.224670,463.864014   C610.979065,462.563690 612.756104,461.031219 615.094299,462.040436   C617.834351,463.223083 617.148193,465.882965 617.352234,468.142761   C617.730286,472.328674 616.407898,476.704865 618.751160,481.290222   C622.037903,478.222717 624.930786,475.297424 628.057495,472.648102   C636.468323,465.521454 645.956238,461.112915 657.278809,461.989258   C677.619385,463.563507 686.006714,480.164215 687.264343,495.092010   C689.041809,516.191040 687.661255,537.362732 687.943787,558.500671   C688.074585,568.285767 689.087952,574.377930 700.578796,577.698914   C702.559265,578.271240 704.460571,579.261047 704.113647,581.807007   C703.738464,584.560303 701.605835,585.054321 699.280701,585.056152   C682.137329,585.069397 664.993958,585.072998 647.850586,585.077942   C645.445374,585.078613 643.385498,584.236206 643.032288,581.689392   C642.657104,578.983276 644.704529,578.166260 646.973694,577.474548   C650.311646,576.457031 653.639709,575.249451 656.102295,571.975098  z"/>
<path fill="#000000" opacity="1.000000" stroke="none" d=" M341.073486,461.686676   C346.241486,461.412109 350.863525,461.961700 355.408722,463.054718   C373.463135,467.396454 382.866821,479.971649 383.115784,500.570831   C383.339172,519.054016 383.266022,537.541016 383.269501,556.026367   C383.270081,559.109680 383.950104,561.975952 385.408295,564.647278   C387.914032,569.237549 391.322205,570.515381 396.220947,568.712463   C398.087372,568.025513 399.955872,566.778503 401.666290,568.838806   C403.498291,571.045593 402.004486,572.864807 400.789001,574.673218   C393.379364,585.697632 379.710205,589.972046 367.373108,585.067078   C362.816498,583.255432 359.768982,579.849304 357.583771,575.537476   C356.849915,574.089478 356.774353,572.263977 355.134430,571.143372   C352.072235,571.913940 350.400238,574.577148 348.309082,576.607910   C339.571320,585.093262 329.322632,588.471924 317.248108,586.374817   C304.150513,584.100037 296.975952,576.590149 295.779022,563.222168   C295.394562,558.928040 295.259460,554.514954 295.793518,550.254517   C297.058746,540.161743 301.970978,532.380859 311.675385,528.339966   C319.507263,525.078857 327.474152,522.142090 335.309265,518.888367   C338.680176,517.488464 341.914734,515.734863 345.131653,513.994751   C351.935822,510.314392 357.191833,505.863281 355.213104,496.778137   C354.413147,493.105255 355.139191,489.127411 354.785736,485.324127   C354.051819,477.426880 348.280090,471.381195 340.918701,470.450409   C333.948181,469.569092 327.057831,474.136200 324.263702,481.416290   C322.560486,485.854095 322.318909,490.461334 322.205475,495.150330   C322.070648,500.725555 320.443848,502.146393 314.960724,502.369659   C311.636047,502.505035 308.315369,502.860413 304.991791,502.875488   C299.661804,502.899658 298.340363,501.668915 298.685669,496.416687   C299.562134,483.086182 306.788300,473.817352 318.098450,467.516418   C325.037628,463.650543 332.642914,461.878540 341.073486,461.686676  M355.546936,551.071106   C355.215149,540.783142 356.470276,530.410706 354.546692,519.145996   C346.265015,524.186890 338.774353,528.419983 331.630035,533.173584   C321.610657,539.840210 320.449982,555.057068 329.015717,563.580078   C333.981232,568.520813 339.897949,568.677002 346.145844,566.926392   C353.759552,564.793091 355.791931,559.100525 355.546936,551.071106  z"/>
<path fill="#000000" opacity="1.000000" stroke="none" d=" M473.488251,480.638428   C487.402435,460.022461 517.563538,457.273682 535.263977,466.550415   C547.523865,472.975708 551.960754,484.275421 552.216431,497.292847   C552.569580,515.273987 552.346252,533.267273 552.285828,551.255005   C552.275635,554.290894 552.655518,557.229431 553.453247,560.124512   C555.390869,567.156494 559.140625,569.198608 565.994934,566.924072   C567.642395,566.377380 569.280029,565.805237 570.627686,567.270935   C571.940674,568.698914 571.448730,570.334106 570.738098,571.933533   C564.604614,585.738464 544.671997,591.062500 532.829163,582.171204   C528.811096,579.154480 527.234497,574.499207 524.701599,570.467163   C521.158325,571.747009 519.465210,574.602234 517.234558,576.734070   C506.795593,586.710205 494.541168,588.704834 481.129517,584.913330   C472.878662,582.580872 468.146973,576.554932 465.980347,568.422241   C464.371979,562.385010 464.136017,556.180725 464.968689,550.080139   C466.402954,539.572144 471.983612,531.876099 481.970001,527.780457   C489.514923,524.686157 497.147980,521.807312 504.709534,518.752686   C510.766541,516.305786 516.323364,512.988464 521.443420,508.913239   C523.702148,507.115417 524.872986,504.991241 524.680359,502.038818   C524.248535,495.420258 525.554321,488.714996 523.655029,482.165863   C521.586304,475.032562 516.848083,470.771667 510.473267,470.355042   C503.169739,469.877747 497.425659,473.635254 494.503662,480.722382   C492.558411,485.440582 492.179962,490.400238 492.117828,495.409393   C492.059662,500.100250 489.932678,502.436615 485.050446,502.349976   C481.233124,502.282257 477.396973,502.924652 473.589020,502.768280   C468.894318,502.575531 467.412628,500.538971 468.063324,495.927246   C468.815521,490.596375 470.487579,485.571320 473.488251,480.638428  M492.495178,547.744324   C492.856689,555.365906 494.468658,562.571594 502.046021,566.200745   C508.616852,569.347839 515.001221,567.784851 520.899658,563.746582   C523.606323,561.893494 524.800049,559.608032 524.739502,556.217651   C524.555054,545.895203 524.698120,535.567261 524.643066,525.241821   C524.633728,523.494507 525.111877,521.524353 522.825745,519.789734   C516.628174,523.495483 510.358276,527.534363 503.817902,531.073364   C497.346863,534.574768 492.975403,539.258240 492.495178,547.744324  z"/>
<path fill="#000000" opacity="1.000000" stroke="none" d=" M881.912842,515.338989   C864.106750,515.350830 846.787720,515.348572 829.468628,515.381775   C823.660583,515.392944 822.857239,516.082336 823.434937,521.598450   C824.249084,529.371399 825.461121,537.077942 828.530396,544.380005   C837.167542,564.928589 857.129883,570.511108 875.057617,557.252319   C877.719910,555.283325 880.028381,552.839478 882.535461,550.655518   C883.914246,549.454407 885.483398,548.951111 887.020264,550.297607   C888.310059,551.427795 888.437317,552.900269 887.557373,554.370544   C879.046692,568.591675 869.773987,581.940186 851.913086,585.444092   C833.143372,589.126282 815.233948,580.820374 805.809021,564.049622   C795.479919,545.670105 794.883118,525.970703 798.229736,505.859253   C800.735962,490.797974 807.412292,478.143585 820.777100,469.757721   C842.334473,456.231354 872.350647,462.566681 884.623779,483.272034   C888.783997,490.290466 890.607178,498.055511 891.252258,506.065247   C891.958923,514.840942 891.364441,515.296997 881.912842,515.338989  M835.652405,507.011780   C843.458313,506.965973 851.264221,506.921082 859.070129,506.873901   C861.590637,506.858673 863.860413,506.408325 863.916626,503.223145   C864.063721,494.894440 864.062012,486.595276 859.776123,478.999847   C853.392151,467.685913 839.979553,466.835968 832.388306,477.314178   C827.458008,484.119354 825.615356,492.026306 824.448120,500.124298   C823.402161,507.381012 823.828247,507.725098 831.217102,507.148468   C832.374939,507.058136 833.540100,507.060181 835.652405,507.011780  z"/>
<path fill="#000000" opacity="1.000000" stroke="none" d=" M414.686035,432.330994   C412.892029,430.738861 411.172943,429.798676 409.175140,429.314392   C406.836243,428.747437 404.604034,428.003967 404.686127,424.901123   C404.772125,421.652100 407.419403,421.392975 409.588013,420.897675   C418.346130,418.897369 427.233154,417.363739 435.304474,413.106812   C436.629608,412.407928 437.974915,411.745880 439.285278,411.020599   C444.951508,407.884216 447.313385,409.152649 447.319580,415.563019   C447.343811,440.556641 447.288116,465.550385 447.278015,490.544067   C447.268707,513.538391 447.255890,536.532715 447.292358,559.526978   C447.310242,570.791809 449.146423,573.420898 459.759979,577.724731   C461.756134,578.534119 463.425018,579.633118 463.140503,582.038696   C462.849792,584.496826 460.933197,585.255127 458.780487,585.259949   C441.286804,585.299133 423.792999,585.296143 406.299255,585.285522   C404.054321,585.284119 402.373840,584.267395 401.918793,581.988464   C401.394440,579.362427 403.323395,578.282104 405.341064,577.934998   C415.061646,576.262634 418.755585,568.703430 418.725403,559.165710   C418.605255,521.175537 418.676086,483.184753 418.656555,445.194214   C418.654236,440.646729 418.257080,436.180389 414.686035,432.330994  z"/>
<path fill="#000000" opacity="1.000000" stroke="none" d=" M728.344116,507.356873   C727.558960,522.788818 729.871643,536.992249 738.328186,549.795837   C750.301147,567.923340 767.954224,569.511230 783.113953,553.835815   C784.978760,551.907654 786.521484,547.423401 789.935669,549.868347   C793.507263,552.426086 790.102905,555.563293 788.565430,558.109009   C782.996582,567.329956 776.468872,575.760376 766.845093,581.088806   C747.174438,591.979919 723.533142,586.032837 710.977783,567.301086   C692.818176,540.208191 695.645813,488.626831 734.430481,468.017731   C750.847351,459.294312 767.665771,459.389771 784.143494,468.341827   C789.859131,471.447021 790.461731,473.368225 788.023560,479.242065   C786.173157,483.699860 784.290039,488.164978 782.063354,492.440247   C779.502747,497.356445 775.531372,497.667236 772.406372,493.075653   C768.758545,487.715729 765.400635,482.135620 762.251221,476.465393   C758.742493,470.148132 755.357361,468.546661 748.396057,470.916504   C742.440735,472.943939 738.192322,476.993530 735.257507,482.538391   C731.215576,490.174835 729.655945,498.492371 728.344116,507.356873  z"/>
</svg>